<?xml version="1.0" standalone="no"?>
<!DOCTYPE svg PUBLIC "-//W3C//DTD SVG 20010904//EN"
 "http://www.w3.org/TR/2001/REC-SVG-20010904/DTD/svg10.dtd">
<svg version="1.0" xmlns="http://www.w3.org/2000/svg"
 width="150.000000pt" height="150.000000pt" viewBox="0 0 150.000000 150.000000"
 preserveAspectRatio="xMidYMid meet">
<metadata>
Created by potrace 1.11, written by Peter Selinger 2001-2013
</metadata>
<g transform="translate(0.000000,150.000000) scale(0.100000,-0.100000)"
fill="#000000" stroke="none">
<path d="M570 1129 c-240 -61 -434 -230 -526 -458 -13 -33 -27 -75 -31 -93
-11 -57 23 -16 47 56 56 170 197 328 366 414 64 32 155 62 189 62 20 0 18 -4
-17 -41 -50 -53 -101 -154 -132 -265 -34 -122 -42 -178 -25 -172 7 2 20 38 29
79 91 415 301 536 459 264 16 -27 40 -84 54 -125 22 -65 31 -100 53 -207 2
-13 11 -23 19 -23 8 0 12 6 10 13 -2 6 -7 30 -10 52 -23 157 -102 335 -182
410 l-27 24 65 -15 c126 -29 256 -102 352 -200 97 -97 171 -232 193 -349 6
-36 18 -54 35 -55 4 0 3 19 -3 43 -59 264 -247 480 -494 565 -92 32 -109 34
-234 37 -88 2 -133 -2 -190 -16z"/>
<path d="M429 616 c-2 -2 -42 -7 -89 -10 -189 -14 -340 -54 -340 -90 0 -7 9
-21 21 -32 21 -19 21 -19 18 1 -3 13 5 24 25 33 39 19 119 41 181 48 28 4 52
8 55 9 31 18 616 27 780 12 121 -11 216 -23 255 -34 14 -4 17 -2 10 5 -10 10
-35 15 -160 32 -38 5 -90 12 -115 15 -50 7 -635 17 -641 11z"/>
<path d="M278 542 c-23 -4 -34 -42 -17 -53 8 -5 31 -9 52 -9 26 0 37 -4 37
-15 0 -11 -12 -15 -52 -15 -37 0 -49 -3 -41 -11 5 -5 32 -9 59 -7 45 3 49 5
52 30 2 19 -2 28 -17 33 -12 3 -24 4 -28 2 -5 -3 -19 0 -33 6 -23 10 -22 11
23 16 26 4 46 10 45 16 -3 10 -48 14 -80 7z"/>
<path d="M390 491 c0 -34 4 -61 10 -61 6 0 10 11 10 25 0 14 4 25 8 25 5 0 19
-11 32 -25 22 -24 50 -34 50 -17 0 4 -14 17 -31 28 l-31 22 31 23 c17 12 31
27 31 31 0 11 -39 -9 -67 -35 l-23 -20 0 26 c0 14 -4 29 -10 32 -6 4 -10 -17
-10 -54z"/>
<path d="M520 544 c0 -3 14 -23 30 -44 18 -23 28 -44 24 -54 -3 -9 -1 -16 5
-16 6 0 14 12 17 28 4 15 18 39 32 54 36 39 20 47 -18 10 -28 -29 -31 -29 -40
-11 -10 19 -50 45 -50 33z"/>
<path d="M660 543 c0 -13 62 -113 70 -113 9 0 70 101 70 115 0 16 -38 -27 -50
-56 -14 -34 -30 -27 -50 21 -10 25 -40 50 -40 33z"/>
<path d="M812 497 c-34 -57 -38 -67 -22 -67 5 0 19 18 30 41 17 33 24 38 35
29 15 -13 10 -34 -5 -25 -5 3 -11 1 -15 -5 -3 -6 4 -10 18 -10 14 0 30 -7 37
-15 27 -33 30 -12 5 33 -45 78 -47 79 -83 19z"/>
<path d="M920 502 c0 -40 4 -53 19 -62 26 -14 74 -13 89 2 14 14 16 94 2 103
-6 4 -10 -12 -10 -40 0 -50 -12 -62 -55 -51 -22 6 -25 12 -23 41 1 19 -3 40
-10 47 -9 9 -12 1 -12 -40z"/>
<path d="M1060 491 l0 -61 45 0 c25 0 45 5 45 10 0 6 -16 10 -35 10 -35 0 -35
0 -35 44 0 25 -4 48 -10 51 -6 4 -10 -17 -10 -54z"/>
<path d="M1140 537 c0 -4 10 -11 23 -16 17 -7 22 -16 22 -45 0 -19 5 -36 10
-36 6 0 10 17 10 38 0 27 4 38 18 42 10 3 18 9 18 15 -1 12 -101 14 -101 2z"/>
<path d="M1368 543 c7 -3 16 -2 19 1 4 3 -2 6 -13 5 -11 0 -14 -3 -6 -6z"/>
<path d="M1460 477 c0 -23 -105 -59 -215 -73 -22 -3 -51 -7 -65 -10 -175 -29
-754 -22 -942 11 -16 3 -40 7 -55 10 -15 2 -22 1 -17 -5 9 -8 20 -10 129 -26
28 -3 58 -8 68 -10 141 -25 701 -25 887 1 128 17 203 37 235 61 15 11 17 18 9
31 -14 22 -34 28 -34 10z"/>
<path d="M120 420 c20 -13 33 -13 25 0 -3 6 -14 10 -23 10 -15 0 -15 -2 -2
-10z"/>
</g>
</svg>
